<svg width="65" height="65" viewBox="0 0 65 65" fill="none" xmlns="http://www.w3.org/2000/svg">
<circle cx="32.5" cy="32.5" r="32.5" transform="rotate(-180 32.5 32.5)" fill="url(#paint0_linear_485_5)"/>
<path d="M37.5214 17.9404C38.203 17.9404 38.8073 18.1677 39.2617 18.622C40.2461 19.5307 40.2461 21.1208 39.2617 22.0295L28.8886 32.4797L39.2617 42.854C40.2461 43.7627 40.2461 45.353 39.2617 46.2617C38.353 47.2461 36.7641 47.2461 35.8554 46.2617L23.7382 34.1457C22.7538 33.237 22.7538 31.6467 23.7382 30.738L35.8554 18.622C36.3098 18.1677 36.9156 17.9404 37.5214 17.9404Z" fill="url(#paint1_linear_485_5)"/>
<defs>
<linearGradient id="paint0_linear_485_5" x1="44.3625" y1="65" x2="-15.5414" y2="59.4612" gradientUnits="userSpaceOnUse">
<stop stop-color="#FC2E21"/>
<stop offset="1" stop-color="#FF4439"/>
</linearGradient>
<linearGradient id="paint1_linear_485_5" x1="43" y1="47" x2="16" y2="4.5" gradientUnits="userSpaceOnUse">
<stop stop-color="white"/>
<stop offset="1" stop-color="#ECECEC"/>
</linearGradient>
</defs>
</svg>
