<svg width="53" height="52" viewBox="0 0 53 52" fill="none" xmlns="http://www.w3.org/2000/svg">
<path opacity="0.75" d="M5.39965 8.59973C3.59964 9.39973 2.39963 11.0997 2.49963 12.9998C2.49963 38.5 21.3998 51.4 26.4998 51.4C31.4998 51.4 50.4 38.7 50.4 12.9998C50.4 11.0997 49.3 9.39973 47.5 8.59973L28.2998 0.599665C27.7998 0.399664 26.9998 0.199662 26.3998 0.199662C25.8998 0.199662 25.0998 0.399664 24.5998 0.599665L5.39965 8.59973ZM26.3998 44.9C20.0998 42 9.29968 32.1999 8.89968 14.0998L26.3998 6.79971V44.9Z" fill="url(#paint0_radial_149_258)"/>
<path opacity="0.75" d="M47.3972 8.59973C49.1972 9.39973 50.3972 11.0997 50.2972 12.9998C50.2972 38.5 31.3971 51.4 26.2971 51.4C21.297 51.4 2.39689 38.7 2.39689 12.9998C2.39689 11.0997 3.4969 9.39973 5.29691 8.59973L24.4971 0.599665C24.9971 0.399664 25.7971 0.199662 26.3971 0.199662C26.8971 0.199662 27.6971 0.399664 28.1971 0.599665L47.3972 8.59973ZM26.3971 44.9C32.6971 42 43.4972 32.1999 43.8972 14.0998L26.3971 6.79971V44.9Z" fill="url(#paint1_radial_149_258)"/>
<path d="M21.3532 23.2509V21.798C21.3532 19.4067 23.2905 17.4391 25.7121 17.4391C28.1034 17.4391 30.0709 19.4067 30.0709 21.798V23.2509H30.5553C31.6147 23.2509 32.4925 24.1287 32.4925 25.1882V31C32.4925 32.0897 31.6147 32.9373 30.5553 32.9373H20.8689C19.7792 32.9373 18.9316 32.0897 18.9316 31V25.1882C18.9316 24.1287 19.7792 23.2509 20.8689 23.2509H21.3532ZM23.2905 23.2509H28.1337V21.798C28.1337 20.4661 27.044 19.3764 25.7121 19.3764C24.3499 19.3764 23.2905 20.4661 23.2905 21.798V23.2509Z" fill="url(#paint2_linear_149_258)"/>
<defs>
<radialGradient id="paint0_radial_149_258" cx="0" cy="0" r="1" gradientUnits="userSpaceOnUse" gradientTransform="translate(46.3407 -5.04395) rotate(127.132) scale(74.8657 373.195)">
<stop stop-color="#D4433A"/>
<stop offset="1" stop-color="#8D0800"/>
</radialGradient>
<radialGradient id="paint1_radial_149_258" cx="0" cy="0" r="1" gradientUnits="userSpaceOnUse" gradientTransform="translate(6.45618 -5.04395) rotate(52.8685) scale(74.8657 373.195)">
<stop stop-color="#C42C23"/>
<stop offset="1" stop-color="#8D0800"/>
</radialGradient>
<linearGradient id="paint2_linear_149_258" x1="25.1164" y1="12.1304" x2="46.1225" y2="27.0543" gradientUnits="userSpaceOnUse">
<stop stop-color="white"/>
<stop offset="1" stop-color="#DAD3CB"/>
</linearGradient>
</defs>
</svg>
