<svg width="617" height="668" viewBox="0 0 617 668" fill="none" xmlns="http://www.w3.org/2000/svg">
<g clip-path="url(#clip0_35_290)">
<path d="M557.127 259.646C542.164 278.189 522.554 288.746 499.512 293.15C480.161 296.77 460.164 293.805 442.671 284.722L441.311 284.174L439.218 282.994C439.04 282.699 438.763 282.477 438.437 282.369C438.111 282.261 437.757 282.273 437.439 282.404C437.272 282.404 437.167 282.636 437.042 282.741L438.8 283.415L440.495 285.038L441.855 285.754C461.779 299.725 484.109 303.855 508.574 301.706C487.185 316.077 451.419 322.672 422.183 309.566C421.597 309.439 420.99 308.575 420.446 309.376C419.902 310.177 420.864 310.387 421.346 310.725C432.396 318.648 444.911 322.462 459.832 324.042C451.704 327.663 443.046 329.933 434.195 330.764C414.063 332.513 395.164 329.036 377.899 317.552C371.62 313.443 364.442 310.998 357.661 307.774C357.46 307.488 357.169 307.278 356.835 307.178C356.501 307.079 356.143 307.096 355.82 307.227C355.317 307.416 355.254 307.753 355.694 307.922C356.178 308.079 356.676 308.192 357.18 308.259C374.571 319.28 390.456 333.272 411.719 336.791C413.121 337.022 414.481 337.423 417.369 338.076C399.12 341.405 382.817 348.001 365.174 344.081C353.162 341.405 342.153 336.769 333.112 328.214C331.899 327.076 331.02 325.096 328.78 325.643C333.259 335.063 333.259 335.063 359.963 352.026C352.862 353.379 345.561 353.249 338.512 351.646C341.923 355.313 346.883 356.177 352.345 358.811C334.598 361.36 320.535 357.715 309.631 344.714C308.815 343.744 308.396 342.48 306.806 342.754L306.094 341.742C305.404 342.311 305.843 342.817 306.094 343.344C312.582 359.527 325.829 364.416 342.091 364.416C334.891 371.686 330.476 373.329 317.877 373.666C322.293 376.574 322.314 376.574 336.859 376.617C332.234 382.137 326.395 382.685 319.593 382.938C325.997 389.639 332.15 395.792 338.052 402.324C346.122 411.491 352.405 422.107 356.573 433.616C360.549 444.363 360.403 455.236 360.424 466.341C360.424 480.628 366.828 492.765 375.073 503.954C377.731 507.558 380.808 510.845 383.696 514.259C387.612 519.282 393.217 522.692 399.455 523.846C406.34 524.942 410.4 529.072 413.497 535.036C419.343 546.235 427.141 556.284 436.518 564.705C440.046 568.049 444.201 570.649 448.741 572.354C452.326 573.47 455.558 575.511 458.116 578.275C461.653 582.237 466.488 580.93 470.862 575.831C472.557 573.892 472.494 570.12 475.759 569.994C479.024 569.868 482.205 571.975 485.072 573.787C488.789 575.878 492.234 578.426 495.327 581.373C495.862 581.788 496.298 582.319 496.602 582.926C496.905 583.534 497.069 584.202 497.081 584.883C497.094 585.563 496.953 586.237 496.671 586.855C496.389 587.473 495.973 588.019 495.452 588.453C490.722 593.679 484.507 596.418 478.145 598.989C477.742 599.205 477.282 599.291 476.829 599.234C476.375 599.178 475.951 598.982 475.612 598.673C471.322 594.037 466.006 595.112 460.963 596.566C449.745 599.811 441.248 596.945 434.447 587.189C428.765 579.396 422.329 572.189 415.234 565.674C408.705 559.353 401.736 553.916 392.904 551.177C390.379 550.26 387.976 549.036 385.747 547.531C373.715 539.994 360.659 534.259 346.988 530.505C326.395 525.026 310.531 513.648 299.607 495.188C297.514 491.796 295.233 488.614 293.161 485.221C285.208 472.199 273.551 465.793 258.483 465.182C241.74 464.508 225.123 463.559 209.071 458.671C195.792 454.609 182.789 449.681 170.145 443.92C168.659 443.267 168.22 442.635 169.057 441.16C169.475 440.38 170.668 439.348 168.931 438.631C167.927 438.231 166.838 437.852 166.043 438.99C165.729 439.411 165.164 439.685 164.934 440.149C159.848 450.874 150.012 452.328 139.82 453.529C129.536 454.534 119.343 456.324 109.328 458.882C104.366 460.407 99.985 463.421 96.7709 467.521C84.2141 481.681 87.437 497.675 90.4925 513.711C91.4053 516.994 91.5059 520.452 90.7855 523.783C90.6283 524.609 90.6721 525.46 90.913 526.265C91.154 527.07 91.585 527.804 92.1691 528.405C92.7532 529.005 93.4731 529.454 94.2672 529.714C95.0613 529.973 95.9061 530.035 96.7291 529.894C102.526 528.271 104.891 529.325 107.026 534.53C109.725 541.062 106.147 556.613 101.04 561.354C99.2823 562.998 98.1313 562.176 96.9802 560.954C93.4015 557.161 89.9065 553.305 86.5161 549.449C85.9225 548.767 85.4975 547.953 85.2756 547.074C85.0537 546.195 85.0414 545.276 85.2395 544.392C86.0348 539.566 83.5443 536.616 79.6517 534.361C75.0576 531.709 71.5562 527.491 69.7794 522.467C68.0026 517.444 68.0674 511.947 69.962 506.968C74.3778 494.915 76.2404 482.693 72.9966 469.902C70.9038 462.127 78.4169 447.06 85.9301 444.152C99.0293 439.205 111.012 431.668 121.173 421.984C127.138 416.274 134.609 412.755 144.048 410.163C139.589 409.624 135.067 410.148 130.846 411.693C126.625 413.238 122.825 415.76 119.75 419.055C113.116 426.157 105.728 427.231 97.0849 426.283C90.1576 425.504 83.1886 424.998 76.1567 424.387C74.1729 424.243 72.1808 424.508 70.302 425.165C68.4231 425.822 66.6967 426.857 65.2282 428.208C63.7596 429.558 62.5795 431.196 61.7598 433.021C60.9402 434.845 60.4981 436.819 60.4606 438.821C60.4531 450.124 62.8285 461.299 67.4297 471.609C68.1741 472.823 68.5312 474.237 68.4526 475.661C68.374 477.085 67.8636 478.451 66.9902 479.574C64.5416 482.777 64.5416 486.338 67.6599 488.677C71.1549 491.29 70.4852 493.882 69.2714 497.106C68.0575 500.33 67.1785 503.175 65.8182 507.305C61.7372 501.974 56.5889 499.213 51.7126 495.989C46.8364 492.765 46.1248 486.043 46.5852 479.764C47.6526 465.013 47.7363 449.989 43.3204 435.808C40.6416 427.147 42.9437 420.341 46.6271 413.303C47.6461 411.072 49.2019 409.133 51.1534 407.662C53.1049 406.19 55.3904 405.232 57.8027 404.874C68.79 403.525 78.103 398.215 87.5416 393.053C88.2071 392.573 88.9066 392.144 89.6344 391.767C101.731 387.279 102.652 387.721 107.842 399.859C109.647 404.316 110.933 408.969 111.672 413.724C112.643 410.02 112.742 406.138 111.961 402.389C111.18 398.639 109.54 395.125 107.172 392.125C98.1104 380.62 100.726 369.452 105.498 357.778C108.193 351.889 110.107 345.669 111.19 339.277C113.995 347.558 113.995 355.018 114.539 362.456C117.023 351.578 115.761 340.172 110.96 330.111C105.84 318.548 97.4465 308.763 86.8301 301.98C82.6444 299.346 81.5352 293.804 77.0776 291.444L75.8219 290.643L74.6499 290.39L75.4452 291.149L76.4078 292.329C79.84 297.47 83.3141 302.506 83.7746 309.06C84.2768 315.993 82.6026 321.703 76.931 326.128C68.4551 332.682 66.1112 342.733 62.6162 352.068C61.8837 353.985 63.6417 355.397 64.3742 356.977C66.9692 362.583 66.2996 366.059 61.9046 369.958C55.9401 375.268 53.5334 375.71 47.6735 372.065C44.3459 369.958 41.1858 367.619 37.9628 365.364C35.305 363.51 34.8446 360.834 34.8446 357.778C34.8446 342.459 34.1121 327.245 27.4988 313.042C26.5962 311.065 26.361 308.845 26.8291 306.721C27.4779 303.37 28.0848 299.999 28.4615 296.585C29.4032 288.156 29.2986 288.156 21.4505 289.147C13.6025 290.137 7.19845 286.724 1.06651 282.404C0.605999 282.13 0.260558 281.696 0.0948887 281.184C-0.0707807 280.672 -0.0452881 280.117 0.166612 279.622C0.564247 278.737 1.75716 279.264 2.59428 279.433C9.1354 280.782 15.9348 279.962 21.9737 277.094C22.9339 276.636 23.9875 276.413 25.0493 276.443C26.111 276.472 27.1509 276.753 28.0848 277.262C29.3105 278.06 30.6872 278.594 32.128 278.83C33.5687 279.065 35.0424 278.998 36.456 278.632C26.9274 276.204 18.5227 270.54 12.6607 262.596C20.8436 264.408 29.0056 264.977 37.0839 265.968C43.0065 266.705 45.4551 271.088 47.1922 277.115C47.7991 270.793 47.527 270.035 43.2786 265.42C54.0566 259.098 65.881 256.57 77.9565 255.495C108.993 252.65 135.676 262.238 159.221 282.046C171.568 292.434 180.672 305.478 189.294 318.943C193.646 325.569 199.946 330.66 207.313 333.503C212.106 335.611 217.171 336.517 221.963 338.245C223.848 338.945 225.886 339.119 227.86 338.748C229.835 338.377 231.674 337.475 233.181 336.137C246.889 324.716 258.943 311.673 271.019 298.629C278.553 290.453 285.773 281.961 293.119 273.617C293.445 273.081 293.895 272.632 294.431 272.309C294.967 271.987 295.572 271.799 296.195 271.762C311.117 272.374 324.888 266.6 339.119 263.671C361.826 259.014 384.261 253.008 406.821 247.593C439.574 239.733 472.243 231.62 503.363 218.408C538.439 203.531 570.333 183.871 595.3 154.265C603.734 144.243 610.949 133.243 616.794 121.498C615.475 157.321 592.14 207.893 534.358 231.705C556.11 227.06 576.19 216.525 592.433 201.235C583.894 225.446 567.529 242.472 545.366 254.146C523.203 265.82 499.031 267.801 473.833 263.797C478.458 267.78 504.305 269.95 515.543 269.592C530.193 269.15 543.524 264.956 556.625 259.056C556.782 259.262 556.949 259.459 557.127 259.646ZM167.592 332.281C143.587 334.62 108.993 379.883 118.536 396.551C123.078 366.123 142.478 347.6 167.592 332.281ZM38.5488 312.284C40.9765 308.47 42.7345 305.393 40.6416 301.052C39.0511 304.74 37.1257 307.732 38.4442 312.284H38.5488ZM419.316 309.165L419.671 308.807C419.453 308.663 419.212 308.556 418.96 308.491C418.96 308.491 418.75 308.681 418.625 308.807L419.316 309.165Z" fill="#D4433A"/>
<path d="M101.332 242.304C101.981 241.124 102.651 239.944 103.299 238.742C103.906 238.089 104.241 237.225 103.676 236.635C103.111 236.045 102.546 236.382 102.19 237.078C97.6487 239.88 93.0236 242.535 87.3521 242.746C95.8907 239.206 101.227 232.737 105.622 224.814C107.883 220.726 112.612 218.113 115.626 214.278C134.733 190.445 157.901 170.849 180.503 150.704C197.487 136.075 212.608 119.385 225.52 101.016C240.839 78.6798 252.119 54.8263 255.489 27.5803C256.477 19.1902 256.882 10.7409 256.703 2.29395C265.43 13.8625 267.69 59.4411 260.888 83.9478C253.51 111.165 238.782 135.79 218.341 155.087C249.148 132.519 269.05 103.165 273.926 64.0559C282.8 100.489 272.587 157.131 216.437 189.877C243.141 178.624 265.074 161.809 278.384 134.52C280.1 153.675 270.745 178.519 255.991 194.07C252.077 198.284 247.62 201.951 243.56 205.87C243.12 205.976 243.204 206.207 242.806 206.692C242.702 206.692 243.664 206.566 244.146 206.502C251.46 203.557 258.3 199.537 264.446 194.576C270.368 189.504 275.779 183.857 280.603 177.718C281.356 202.456 259.277 236.72 220.476 245.148C229.266 250.1 253.752 240.26 272.315 224.308C272.901 230.314 269.887 239.185 264.488 247.382C259.65 254.558 253.315 260.584 245.925 265.04C238.708 269.285 230.752 272.103 222.485 273.343C237.135 276.672 245.904 274.438 264.237 262.659C258.335 282.867 245.255 294.077 225.582 298.481C231.212 300.273 238.139 299.198 249.838 294.752C249.713 303.749 245.548 310.514 238.6 316.372C242.032 318.163 244.669 316.603 247.348 315.613C247.523 315.917 247.742 316.194 247.997 316.435C243.584 322.386 238.164 327.507 231.986 331.564C224.41 336.959 206.182 332.028 201.745 320.186C202.93 320.942 204.256 321.447 205.642 321.668C207.028 321.889 208.444 321.822 209.803 321.471C202.729 318.647 198.48 312.916 194.19 307.142C196.953 305.836 200.469 310.261 201.201 307.858C202.206 304.592 197.12 305.119 195.132 303.244C193.667 301.832 191.511 301.137 189.46 298.587C195.739 299.935 201.138 301.979 208.107 301.158C198.522 297.386 191.365 291.401 182.701 288.093L203.482 285.585C199.757 281.961 194.818 282.867 190.444 282.172C186.07 281.476 181.633 281.645 177.134 280.802C187.054 276.819 196.22 270.266 207.814 272.858C208.059 272.921 208.317 272.892 208.541 272.775C208.765 272.658 208.938 272.463 209.028 272.226C209.426 270.983 208.463 270.392 207.438 269.992C203.008 268.475 198.246 268.234 193.688 269.297C184.166 270.961 174.622 272.436 163.593 270.287C173.618 267.611 182.889 266.073 190.298 259.751C179.352 261.858 168.302 261.205 156.645 262.301C165.456 256.801 171.818 248.646 183.58 247.277C176.255 244.938 169.725 246.118 161.626 250.458C151.036 256.148 149.174 256.654 138.982 256.274C151.141 251.449 156.833 238.595 169.851 236.446C163.175 234.338 157.608 236.551 152.376 239.922C145.47 244.39 138.647 248.962 130.485 250.901C129.459 251.154 128.392 251.238 126.027 251.617C133.143 246.581 138.584 241.777 139.84 232.252C132.766 240.681 125.337 246.307 114.349 247.108C119.079 242.894 123.683 239.691 126.278 234.465C126.55 233.917 127.325 233.369 126.53 232.779C125.734 232.189 125.42 233.137 124.96 233.538C117.761 238.405 110.143 242.072 101.248 242.24L101.332 242.304Z" fill="#D4433A"/>
<path d="M234.549 466.931C245.683 468.891 256.377 468.49 266.611 471.146C277.285 473.99 284.672 481.829 291.537 489.921C296.392 495.673 300.703 501.911 305.245 507.937C309.987 514.314 316.086 519.541 323.096 523.235C332.263 528.019 337.746 536.679 345.406 543.148C348.482 545.782 348.545 550.713 349.403 554.738C352.061 567.381 357.921 578.36 364.68 589.043C365.94 591.248 367.733 593.096 369.892 594.417C373.177 596.25 375.584 598.315 375.877 602.571C376.033 603.763 376.585 604.866 377.445 605.701C378.304 606.535 379.419 607.051 380.607 607.165C381.793 607.299 382.987 607.004 383.977 606.332C384.966 605.66 385.686 604.656 386.006 603.499C387.555 598.715 390.38 599.684 393.394 601.391C398.793 604.426 402.812 609.062 406.913 613.571C408.713 615.552 407.855 617.132 406.244 618.649C402.999 621.764 399.292 624.352 395.257 626.319C386.885 630.302 383.432 629.712 377.614 622.653C376.242 620.756 374.466 619.19 372.417 618.071C370.368 616.952 368.097 616.307 365.769 616.184C359.03 615.952 355.493 611.822 353.212 606.111C348.529 593.858 342.417 582.208 335.004 571.406C322.557 553.636 305.651 539.509 286.012 530.463C273.489 524.635 263.101 514.994 256.315 502.901C249.199 491.122 242.083 479.385 234.549 466.931Z" fill="#D4433A"/>
<path d="M554.264 566.475C554.244 566.759 554.286 567.044 554.387 567.31C554.488 567.575 554.647 567.816 554.85 568.013C555.093 568.222 555.391 568.354 555.708 568.392C554.871 536.995 531.536 516.134 501.965 520.285C494.305 521.381 487.629 525.005 480.702 528.103C462.536 536.194 444.664 529.009 436.899 510.571C434.013 503.952 432.915 496.682 433.718 489.499C435.811 471.503 428.214 457.891 414.548 447.355C407.579 441.939 399.208 439.305 390.732 437.219C387.216 437.472 383.679 437.451 380.268 438.041C376.97 438.65 373.584 438.579 370.314 437.833C367.045 437.087 363.959 435.681 361.244 433.7C364.413 442.917 365.583 452.711 364.676 462.421C381.419 458.207 393.766 463.622 402.598 478.436C406.34 484.613 408.497 491.63 408.877 498.855C409.482 508.26 412.831 517.276 418.504 524.773C435.623 548.458 466.345 553.494 488.173 536.026C491.383 533.103 495.181 530.911 499.307 529.599C510.839 526.585 522.077 526.016 532.436 533.35L533.901 534.298C535.555 535.309 545.454 544.138 554.264 566.475Z" fill="#D4433A"/>
<path d="M390.732 437.135C387.217 437.388 383.68 437.367 380.268 437.957C376.971 438.566 373.585 438.495 370.315 437.749C367.045 437.003 363.96 435.597 361.245 433.616C359.612 429.971 357.959 426.346 356.159 422.385C356.915 422.3 357.68 422.381 358.403 422.621C359.125 422.861 359.787 423.255 360.345 423.776C364.889 426.655 370.359 427.666 375.622 426.599C390.105 423.881 404.482 423.67 418.044 430.708C427.899 435.623 435.914 443.611 440.895 453.483C445.877 463.355 447.558 474.583 445.69 485.495C444.664 492.259 444.853 498.771 449.268 504.46C450.734 506.444 452.649 508.047 454.853 509.137C457.058 510.227 459.488 510.772 461.944 510.727C464.399 510.681 466.808 510.047 468.972 508.877C471.135 507.706 472.99 506.033 474.382 503.997C475.812 501.719 477.125 499.37 478.317 496.959C485.474 483.999 498.596 479.595 513.183 486.064C497.278 482.946 486.144 487.539 478.882 501.636C473.65 511.814 463.897 515.649 454.082 512.805C445.208 510.234 439.097 501.046 439.935 489.92C441.274 472.346 436.565 457.406 422.271 446.554C413.326 439.5 402.051 436.133 390.732 437.135Z" fill="#D4433A"/>
<path d="M534.564 533.855C547.33 540.788 552.646 552.293 554.215 566.138C554.32 567.107 554.592 567.844 555.659 568.034C556.329 573.555 555.492 579.139 556.664 584.702C560.284 601.749 578.659 616.078 598.29 604.973C602.768 602.423 607.456 600.991 612.605 604.046C604.966 601.939 599.671 606.954 593.665 609.82C581.966 615.362 571.104 613.781 561.582 604.91C554.44 598.432 550.086 589.407 549.444 579.75C548.878 572.754 548.544 565.758 545.363 559.247C536.384 540.851 515.749 533.307 496.684 541.842C489.777 544.918 482.934 547.805 474.918 546.688C483.938 543.717 489.987 535.941 498.484 532.317C509.806 527.492 521.191 528.419 532.408 532.991H532.617L534.564 533.855Z" fill="#D4433A"/>
<path d="M435.062 281.771C435.544 281.519 436.067 281.224 436.381 281.919C436.381 281.919 435.941 282.362 435.711 282.593C435.466 282.344 435.249 282.068 435.062 281.771Z" fill="#D4433A"/>
</g>
<defs>
<clipPath id="clip0_35_290">
<rect width="617" height="668" fill="white"/>
</clipPath>
</defs>
</svg>
