<svg width="226" height="127" viewBox="0 0 226 127" fill="none" xmlns="http://www.w3.org/2000/svg">
<mask id="mask0_176_1247" style="mask-type:alpha" maskUnits="userSpaceOnUse" x="0" y="-1" width="227" height="128">
<path d="M0.5 96V0H226V86V103.5L159.782 100.471L10.4255 125.5L1 125L0.5 96Z" fill="#D9D9D9"/>
<path d="M226 86V0H0.5V96L1 125L10.4255 125.5L159.782 100.471M226 86L159.782 100.471M226 86V103.5L159.782 100.471" stroke="black"/>
</mask>
<g mask="url(#mask0_176_1247)">
<path d="M48.4525 0.839998C66.0925 0.839998 79.8925 6.24 89.8525 17.04C99.8125 27.72 104.792 43.14 104.792 63.3C104.792 77.58 102.092 89.82 96.6925 100.02C91.4125 110.22 83.9125 117.96 74.1925 123.24C64.4725 128.52 53.2525 131.16 40.5325 131.16C33.8125 131.16 27.3925 130.44 21.2725 129C15.1525 127.44 9.93249 125.28 5.61249 122.52L16.4125 101.1C22.5325 105.3 30.3925 107.4 39.9925 107.4C50.6725 107.4 59.1325 104.28 65.3725 98.04C71.6125 91.68 74.9725 82.56 75.4525 70.68C67.8925 78.24 57.4525 82.02 44.1325 82.02C36.0925 82.02 28.7725 80.4 22.1725 77.16C15.5725 73.92 10.3525 69.36 6.51249 63.48C2.67249 57.48 0.752489 50.58 0.752489 42.78C0.752489 34.38 2.85249 27 7.05249 20.64C11.2525 14.28 16.9525 9.41999 24.1525 6.05999C31.4725 2.58 39.5725 0.839998 48.4525 0.839998ZM50.6125 60.24C56.9725 60.24 62.1325 58.5 66.0925 55.02C70.1725 51.42 72.2125 46.86 72.2125 41.34C72.2125 35.82 70.2325 31.32 66.2725 27.84C62.4325 24.36 57.0925 22.62 50.2525 22.62C44.0125 22.62 38.9125 24.3 34.9525 27.66C31.1125 31.02 29.1925 35.58 29.1925 41.34C29.1925 47.1 31.1125 51.72 34.9525 55.2C38.9125 58.56 44.1325 60.24 50.6125 60.24ZM225.719 2.99999V21.9L178.919 129H147.239L192.419 26.76H150.659V47.28H124.739V2.99999H225.719Z" fill="url(#paint0_linear_176_1247)"/>
</g>
<defs>
<linearGradient id="paint0_linear_176_1247" x1="84.6602" y1="-30.3721" x2="95.0649" y2="174.98" gradientUnits="userSpaceOnUse">
<stop stop-color="#D5443B"/>
<stop offset="1" stop-color="#B55852"/>
</linearGradient>
</defs>
</svg>
