<svg width="29" height="29" viewBox="0 0 29 29" fill="none" xmlns="http://www.w3.org/2000/svg">
<path d="M26.0633 17.7749C27.3044 18.3145 28.0059 19.6635 27.6281 21.0126L26.495 25.923C26.2791 27.218 25.1459 28.0814 23.7969 28.0814C10.7384 28.0814 0.162109 17.5051 0.162109 4.44661C0.162109 3.09759 1.02548 1.96441 2.32054 1.69461L7.23097 0.561433C8.57999 0.237668 9.92901 0.939158 10.4686 2.18026L12.7889 7.57633C13.2746 8.70951 12.8968 10.0585 11.9795 10.8679L10.1448 12.3249C11.5478 14.6992 13.5444 16.6957 15.9726 18.0987L17.4296 16.318C18.239 15.3467 19.588 14.969 20.7751 15.5086L26.0633 17.7749ZM25.1459 20.419C25.1999 20.3111 25.1459 20.2031 25.038 20.0952L19.7499 17.8289C19.6419 17.7749 19.534 17.8289 19.4801 17.8828L17.3216 20.5269C16.9439 21.0126 16.2424 21.1205 15.7028 20.8507C12.0874 19.07 9.11959 16.1021 7.33889 12.4868C7.06909 11.9472 7.23097 11.2996 7.66265 10.9219L10.3067 8.76347C10.4147 8.70951 10.4147 8.60159 10.3607 8.49366L8.09434 3.20551C8.04038 3.15155 7.98642 3.04363 7.8785 3.04363L7.82454 3.09759L2.91411 4.23076C2.80619 4.23076 2.69826 4.33869 2.69826 4.44661C2.69826 16.0482 12.1954 25.4913 23.7969 25.4913C23.9048 25.4913 24.0128 25.3834 24.0128 25.3294L25.1459 20.419Z" fill="#C9C9C9"/>
</svg>
