<svg width="25" height="22" viewBox="0 0 25 22" fill="none" xmlns="http://www.w3.org/2000/svg">
<path d="M12.7749 20.3638C12.8531 20.3978 12.9276 20.4303 13.0071 20.4608C13.8559 20.7875 14.6734 20.7774 15.4451 20.4365C15.45 20.4345 15.4598 20.4306 15.4647 20.4287C15.7484 20.2858 16.0498 20.1726 16.3695 20.055C16.5874 19.9746 16.8103 19.8923 17.025 19.7993C18.0415 19.373 18.3875 18.471 17.9092 17.5001L16.5859 14.8137C16.3635 14.3385 16.0106 13.9965 15.5627 13.8241C15.1184 13.6532 14.6239 13.6653 14.1288 13.8605L12.477 14.5121C12.3905 14.4139 12.2979 14.321 12.2089 14.2294C12.0962 14.1134 11.993 14.005 11.9055 13.8987C11.0424 12.8179 10.3613 11.578 9.81781 10.1122C9.54954 9.35965 9.41129 8.76406 9.37209 8.19131C9.79313 8.04776 10.1964 7.8859 10.5862 7.72652C10.7283 7.67045 10.8718 7.61107 11.0188 7.55306C12.0678 7.13933 12.4097 6.25868 11.9116 5.25341L11.2545 3.91961C11.1779 3.76408 11.1049 3.60994 11.0306 3.45912C10.8856 3.15887 10.7373 2.84588 10.58 2.55614C10.3524 2.09427 9.99927 1.76355 9.55503 1.5926C9.11439 1.42304 8.62241 1.42852 8.1276 1.61243L6.38875 2.29545C5.75151 2.54678 5.28042 2.969 4.98655 3.55491C4.6274 4.28758 4.4669 5.15017 4.48026 6.27065C4.50161 8.00152 4.86762 9.74278 5.63322 11.7486C6.57271 14.1727 7.98664 16.3478 9.84483 18.2126C10.555 18.9175 11.5296 19.7968 12.7749 20.3638ZM6.51839 11.4895C5.78941 9.58183 5.44428 7.93648 5.42423 6.30923C5.4106 5.30706 5.54246 4.58242 5.84562 3.96189C6.04661 3.56177 6.35413 3.28288 6.794 3.1122L8.52435 2.42972C8.78646 2.33197 9.03439 2.32424 9.24386 2.40486C9.44973 2.48408 9.61716 2.65164 9.74382 2.90282C9.89525 3.18645 10.0356 3.47727 10.1829 3.78223C10.2559 3.93637 10.3312 4.09523 10.4114 4.25215L11.0685 5.58594C11.3378 6.13266 11.1907 6.5115 10.6221 6.73577C10.475 6.79377 10.328 6.85177 10.1845 6.91116C9.75189 7.08462 9.34737 7.2498 8.91421 7.3925C8.9044 7.39637 8.8995 7.3983 8.88969 7.40217C8.49265 7.55877 8.43536 7.83466 8.43278 8.0552C8.43251 8.06656 8.43355 8.0746 8.43329 8.08596C8.4699 8.7723 8.62646 9.47043 8.93911 10.3547C9.51565 11.9172 10.247 13.2414 11.1739 14.404C11.2884 14.5475 11.4153 14.6803 11.5399 14.8085C11.6527 14.9244 11.7558 15.0329 11.8433 15.1391C11.8551 15.1513 11.8634 15.1621 11.8753 15.1744C11.9702 15.272 12.0719 15.3416 12.1875 15.3861C12.4727 15.4959 12.7179 15.3993 12.7976 15.365L14.5377 14.6787C14.8025 14.5742 15.048 14.5618 15.2539 14.641C15.5067 14.7383 15.6558 14.9638 15.7404 15.1415L17.0684 17.8374C17.3935 18.4972 16.9997 18.827 16.6074 18.993C16.4075 19.0803 16.2042 19.1548 15.9897 19.2365C15.6651 19.3562 15.3295 19.4829 15.0052 19.6446C14.4655 19.88 13.9335 19.8815 13.3304 19.6494C13.2726 19.6272 13.2125 19.6002 13.156 19.5747C12.0586 19.076 11.1745 18.2736 10.5236 17.6297C8.75311 15.8598 7.40834 13.7953 6.51839 11.4895Z" stroke="#281543" stroke-width="0.904957"/>
<path d="M14.7182 6.27844C14.4965 6.15208 14.2183 6.213 14.0964 6.41249C13.9732 6.61523 14.052 6.88072 14.2702 7.00574C15.1777 7.53043 15.8927 8.29088 16.3448 9.20777C16.7935 10.1233 16.934 11.1144 16.7525 12.0712C16.7121 12.2796 16.8418 12.4864 17.0493 12.5662C17.0739 12.5757 17.0998 12.5819 17.1257 12.5881C17.375 12.643 17.6139 12.496 17.655 12.2654C17.8714 11.1354 17.7044 9.96243 17.1747 8.88127C16.639 7.79412 15.7914 6.89675 14.7182 6.27844Z" stroke="#281543" stroke-width="0.904957"/>
<path d="M20.8191 14.013C20.8463 14.0235 20.8748 14.0303 20.9033 14.0372C21.1783 14.0977 21.4417 13.9357 21.487 13.6815C21.882 11.6191 21.5771 9.48914 20.6098 7.51582C19.6386 5.54102 18.0959 3.90191 16.1367 2.77344C15.8922 2.63409 15.5854 2.70125 15.451 2.92118C15.3153 3.14469 15.4021 3.43742 15.6427 3.57528C17.4154 4.59905 18.817 6.08505 19.6947 7.87573C20.5726 9.66644 20.847 11.5995 20.4918 13.4672C20.4471 13.697 20.5904 13.925 20.8191 14.013Z" stroke="#281543" stroke-width="0.904957"/>
</svg>
