<svg width="18" height="25" viewBox="0 0 18 25" fill="none" xmlns="http://www.w3.org/2000/svg">
<path d="M11.008 0.85238C14.4615 0.85238 17.2674 3.60438 17.2674 7.05787C17.2674 9.43214 15.9184 11.5906 13.814 12.6698L9.49709 15.2059V16.3391C9.49709 17.3104 8.68768 18.0659 7.77035 18.0659C6.79906 18.0659 6.0436 17.3104 6.0436 16.3391V14.1807C6.0436 13.5871 6.31341 13.0475 6.85302 12.7237L12.1412 9.64798C13.2204 9.10838 13.814 8.13708 13.814 7.05787C13.814 5.54697 12.5189 4.30587 11.008 4.30587H5.18023C4.20894 4.30587 3.45349 5.06132 3.45349 6.03261C3.45349 6.89598 2.64408 7.7054 1.72674 7.7054C0.755451 7.7054 0 6.94995 0 6.03261C0 3.17269 2.32031 0.85238 5.18023 0.85238H11.008ZM7.77035 20.656C8.95749 20.656 9.92878 21.6812 9.92878 22.8144C9.92878 24.0015 8.95749 24.9728 7.77035 24.9728C6.52925 24.9728 5.61192 24.0555 5.61192 22.8144C5.61192 21.6273 6.52925 20.656 7.77035 20.656Z" fill="#C9C9C9"/>
</svg>
