<svg width="26" height="28" viewBox="0 0 26 28" fill="none" xmlns="http://www.w3.org/2000/svg">
<path d="M15.6031 16.4757C20.8373 16.4757 25.1002 20.7386 25.1002 25.9728C25.1002 26.9441 24.2908 27.6996 23.3735 27.6996H2.65253C1.68123 27.6996 0.925781 26.9441 0.925781 25.9728C0.925781 20.7386 5.13472 16.4757 10.4229 16.4757H15.6031ZM3.5159 25.1095H22.4561C22.0244 21.7099 19.1106 19.0659 15.6031 19.0659H10.4229C6.86146 19.0659 3.94758 21.7099 3.5159 25.1095ZM13.013 13.8856C9.18178 13.8856 6.10601 10.8099 6.10601 6.97865C6.10601 3.2014 9.18178 0.0716753 13.013 0.0716753C16.7902 0.0716753 19.92 3.2014 19.92 6.97865C19.92 10.8099 16.7902 13.8856 13.013 13.8856ZM13.013 2.66179C10.5848 2.66179 8.69613 4.60438 8.69613 6.97865C8.69613 9.40689 10.5848 11.2955 13.013 11.2955C15.3873 11.2955 17.3299 9.40689 17.3299 6.97865C17.3299 4.60438 15.3873 2.66179 13.013 2.66179Z" fill="#C9C9C9"/>
</svg>
